[ConversionWorker] Logging FFmpeg output to: ffmpeg_logs\ffmpeg_conversion_高冷15_wav_20250525_174036.log\n[ConversionWorker] Getting duration with command: ffprobe -v error -show_entries format=duration -of default=noprint_wrappers=1:nokey=1 Z:\Story\高冷\高冷15.wav\n[ConversionWorker] Duration for 高冷15.wav: 3530374 ms\n[ConversionWorker] Starting FFmpeg for 高冷15.wav: ffmpeg -i Z:\Story\高冷\高冷15.wav -b:a 128k -vn -y -loglevel error -stats -progress pipe:1 Z:\Story\高冷\高冷15.mp3\n[ConversionWorker] FFmpeg process started. PID: 22248\n[STDOUT RAW] bitrate= 124.4kbits/s\n[STDOUT RAW] total_size=79532\n[STDOUT RAW] out_time_us=5113958\n[STDOUT RAW] out_time_ms=5113958\n[STDOUT RAW] out_time=00:00:05.113958\n[STDOUT RAW] dup_frames=0\n[STDOUT RAW] drop_frames=0\n[STDOUT RAW] speed=9.97x\n[STDOUT RAW] progress=continue\n[STDERR RAW] size=      78KiB time=00:00:05.11 bitrate= 124.4kbits/s speed=9.97x\n[STDOUT RAW] bitrate= 125.9kbits/s\n[STDOUT RAW] total_size=160172\n[STDOUT RAW] out_time_us=10177958\n[STDOUT RAW] out_time_ms=10177958\n[STDOUT RAW] out_time=00:00:10.177958\n[STDOUT RAW] dup_frames=0\n[STDOUT RAW] drop_frames=0\n[STDOUT RAW] speed=9.82x\n[STDOUT RAW] progress=continue\n[STDERR RAW] size=     156KiB time=00:00:10.17 bitrate= 125.9kbits/s speed=9.82x\n[STDOUT RAW] bitrate= 126.6kbits/s\n[STDOUT RAW] total_size=236588\n[STDOUT RAW] out_time_us=14953958\n[STDOUT RAW] out_time_ms=14953958\n[STDOUT RAW] out_time=00:00:14.953958\n[STDOUT RAW] dup_frames=0\n[STDOUT RAW] drop_frames=0\n[STDOUT RAW] speed=9.69x\n[STDOUT RAW] progress=continue\n[STDERR RAW] size=     231KiB time=00:00:14.95 bitrate= 126.6kbits/s speed=9.69x\n[STDOUT RAW] bitrate= 107.4kbits/s\n[STDOUT RAW] total_size=1310720\n[STDOUT RAW] out_time_us=97633958\n[STDOUT RAW] out_time_ms=97633958\n[STDOUT RAW] out_time=00:01:37.633958\n[STDOUT RAW] dup_frames=0\n[STDOUT RAW] drop_frames=0\n[STDOUT RAW] speed=47.3x\n[STDOUT RAW] progress=continue\n[STDERR RAW] size=    1280KiB time=00:01:37.63 bitrate= 107.4kbits/s speed=47.3x\n[STDOUT RAW] bitrate= 120.3kbits/s\n[STDOUT RAW] total_size=3145728\n[STDOUT RAW] out_time_us=209209958\n[STDOUT RAW] out_time_ms=209209958\n[STDOUT RAW] out_time=00:03:29.209958\n[STDOUT RAW] dup_frames=0\n[STDOUT RAW] drop_frames=0\n[STDOUT RAW] speed=81.1x\n[STDOUT RAW] progress=continue\n[STDERR RAW] size=    3072KiB time=00:03:29.20 bitrate= 120.3kbits/s speed=81.1x\n[STDOUT RAW] bitrate= 125.7kbits/s\n[STDOUT RAW] total_size=4980736\n[STDOUT RAW] out_time_us=316921958\n[STDOUT RAW] out_time_ms=316921958\n[STDOUT RAW] out_time=00:05:16.921958\n[STDOUT RAW] dup_frames=0\n[STDOUT RAW] drop_frames=0\n[STDOUT RAW] speed= 102x\n[STDOUT RAW] progress=continue\n[STDERR RAW] size=    4864KiB time=00:05:16.92 bitrate= 125.7kbits/s speed= 102x\n[STDOUT RAW] bitrate= 123.8kbits/s\n[STDOUT RAW] total_size=6553600\n[STDOUT RAW] out_time_us=423481958\n[STDOUT RAW] out_time_ms=423481958\n[STDOUT RAW] out_time=00:07:03.481958\n[STDOUT RAW] dup_frames=0\n[STDOUT RAW] drop_frames=0\n[STDOUT RAW] speed= 117x\n[STDOUT RAW] progress=continue\n[STDERR RAW] size=    6400KiB time=00:07:03.48 bitrate= 123.8kbits/s speed= 117x\n[STDOUT RAW] bitrate= 126.3kbits/s\n[STDOUT RAW] total_size=8388608\n[STDOUT RAW] out_time_us=531313958\n[STDOUT RAW] out_time_ms=531313958\n[STDOUT RAW] out_time=00:08:51.313958\n[STDOUT RAW] dup_frames=0\n[STDOUT RAW] drop_frames=0\n[STDOUT RAW] speed= 129x\n[STDOUT RAW] progress=continue\n[STDERR RAW] size=    8192KiB time=00:08:51.31 bitrate= 126.3kbits/s speed= 129x\n[STDOUT RAW] bitrate= 127.7kbits/s\n[STDOUT RAW] total_size=10223616\n[STDOUT RAW] out_time_us=640465958\n[STDOUT RAW] out_time_ms=640465958\n[STDOUT RAW] out_time=00:10:40.465958\n[STDOUT RAW] dup_frames=0\n[STDOUT RAW] drop_frames=0\n[STDOUT RAW] speed= 138x\n[STDOUT RAW] progress=continue\n[STDERR RAW] size=    9984KiB time=00:10:40.46 bitrate= 127.7kbits/s speed= 138x\n[STDOUT RAW] bitrate= 125.6kbits/s\n[STDOUT RAW] total_size=11796480\n[STDOUT RAW] out_time_us=751609958\n[STDOUT RAW] out_time_ms=751609958\n[STDOUT RAW] out_time=00:12:31.609958\n[STDOUT RAW] dup_frames=0\n[STDOUT RAW] drop_frames=0\n[STDOUT RAW] speed= 146x\n[STDOUT RAW] progress=continue\n[STDERR RAW] size=   11520KiB time=00:12:31.60 bitrate= 125.6kbits/s speed= 146x\n[STDOUT RAW] bitrate= 127.1kbits/s\n[STDOUT RAW] total_size=13631488\n[STDOUT RAW] out_time_us=858145958\n[STDOUT RAW] out_time_ms=858145958\n[STDOUT RAW] out_time=00:14:18.145958\n[STDOUT RAW] dup_frames=0\n[STDOUT RAW] drop_frames=0\n[STDOUT RAW] speed= 151x\n[STDOUT RAW] progress=continue\n[STDERR RAW] size=   13312KiB time=00:14:18.14 bitrate= 127.1kbits/s speed= 151x\n[STDOUT RAW] bitrate= 126.2kbits/s\n[STDOUT RAW] total_size=15204352\n[STDOUT RAW] out_time_us=963937958\n[STDOUT RAW] out_time_ms=963937958\n[STDOUT RAW] out_time=00:16:03.937958\n[STDOUT RAW] dup_frames=0\n[STDOUT RAW] drop_frames=0\n[STDOUT RAW] speed= 156x\n[STDOUT RAW] progress=continue\n[STDERR RAW] size=   14848KiB time=00:16:03.93 bitrate= 126.2kbits/s speed= 156x\n[STDOUT RAW] bitrate= 127.6kbits/s\n[STDOUT RAW] total_size=17039360\n[STDOUT RAW] out_time_us=1068265958\n[STDOUT RAW] out_time_ms=1068265958\n[STDOUT RAW] out_time=00:17:48.265958\n[STDOUT RAW] dup_frames=0\n[STDOUT RAW] drop_frames=0\n[STDOUT RAW] speed= 159x\n[STDOUT RAW] progress=continue\n[STDERR RAW] size=   16640KiB time=00:17:48.26 bitrate= 127.6kbits/s speed= 159x\n[STDOUT RAW] bitrate= 126.8kbits/s\n[STDOUT RAW] total_size=18612224\n[STDOUT RAW] out_time_us=1174321958\n[STDOUT RAW] out_time_ms=1174321958\n[STDOUT RAW] out_time=00:19:34.321958\n[STDOUT RAW] dup_frames=0\n[STDOUT RAW] drop_frames=0\n[STDOUT RAW] speed= 163x\n[STDOUT RAW] progress=continue\n[STDERR RAW] size=   18176KiB time=00:19:34.32 bitrate= 126.8kbits/s speed= 163x\n[STDOUT RAW] bitrate= 127.8kbits/s\n[STDOUT RAW] total_size=20447232\n[STDOUT RAW] out_time_us=1280113958\n[STDOUT RAW] out_time_ms=1280113958\n[STDOUT RAW] out_time=00:21:20.113958\n[STDOUT RAW] dup_frames=0\n[STDOUT RAW] drop_frames=0\n[STDOUT RAW] speed= 166x\n[STDOUT RAW] progress=continue\n[STDOUT RAW] bitrate= 126.9kbits/s\n[STDOUT RAW] total_size=22020096\n[STDERR RAW] size=   19968KiB time=00:21:20.11 bitrate= 127.8kbits/s speed= 166x\n[STDOUT RAW] out_time_us=1388377958\n[STDOUT RAW] out_time_ms=1388377958\n[STDOUT RAW] out_time=00:23:08.377958\n[STDOUT RAW] dup_frames=0\n[STDOUT RAW] drop_frames=0\n[STDOUT RAW] speed= 168x\n[STDOUT RAW] progress=continue\n[STDERR RAW] size=   21504KiB time=00:23:08.37 bitrate= 126.9kbits/s speed= 168x\n[STDOUT RAW] bitrate= 127.8kbits/s\n[STDOUT RAW] total_size=23855104\n[STDOUT RAW] out_time_us=1493761958\n[STDOUT RAW] out_time_ms=1493761958\n[STDOUT RAW] out_time=00:24:53.761958\n[STDOUT RAW] dup_frames=0\n[STDOUT RAW] drop_frames=0\n[STDOUT RAW] speed= 170x\n[STDOUT RAW] progress=continue\n[STDERR RAW] size=   23296KiB time=00:24:53.76 bitrate= 127.8kbits/s speed= 170x\n[STDOUT RAW] bitrate= 127.5kbits/s\n[STDOUT RAW] total_size=25427968\n[STDOUT RAW] out_time_us=1595545958\n[STDOUT RAW] out_time_ms=1595545958\n[STDOUT RAW] out_time=00:26:35.545958\n[STDOUT RAW] dup_frames=0\n[STDOUT RAW] drop_frames=0\n[STDOUT RAW] speed= 172x\n[STDOUT RAW] progress=continue\n[STDERR RAW] size=   24832KiB time=00:26:35.54 bitrate= 127.5kbits/s speed= 172x\n[STDOUT RAW] bitrate= 127.1kbits/s\n[STDOUT RAW] total_size=27000832\n[STDOUT RAW] out_time_us=1698913958\n[STDOUT RAW] out_time_ms=1698913958\n[STDOUT RAW] out_time=00:28:18.913958\n[STDOUT RAW] dup_frames=0\n[STDOUT RAW] drop_frames=0\n[STDOUT RAW] speed= 173x\n[STDOUT RAW] progress=continue\n[STDERR RAW] size=   26368KiB time=00:28:18.91 bitrate= 127.1kbits/s speed= 173x\n[STDOUT RAW] bitrate= 126.9kbits/s\n[STDOUT RAW] total_size=28573696\n[STDOUT RAW] out_time_us=1801081958\n[STDOUT RAW] out_time_ms=1801081958\n[STDOUT RAW] out_time=00:30:01.081958\n[STDOUT RAW] dup_frames=0\n[STDOUT RAW] drop_frames=0\n[STDOUT RAW] speed= 175x\n[STDOUT RAW] progress=continue\n[STDERR RAW] size=   27904KiB time=00:30:01.08 bitrate= 126.9kbits/s speed= 175x\n[STDOUT RAW] bitrate= 126.9kbits/s\n[STDOUT RAW] total_size=30146560\n[STDOUT RAW] out_time_us=1900681958\n[STDOUT RAW] out_time_ms=1900681958\n[STDOUT RAW] out_time=00:31:40.681958\n[STDOUT RAW] dup_frames=0\n[STDOUT RAW] drop_frames=0\n[STDOUT RAW] speed= 176x\n[STDOUT RAW] progress=continue\n[STDERR RAW] size=   29440KiB time=00:31:40.68 bitrate= 126.9kbits/s speed= 176x\n[STDOUT RAW] bitrate= 127.6kbits/s\n[STDOUT RAW] total_size=31981568\n[STDOUT RAW] out_time_us=2004433958\n[STDOUT RAW] out_time_ms=2004433958\n[STDOUT RAW] out_time=00:33:24.433958\n[STDOUT RAW] dup_frames=0\n[STDOUT RAW] drop_frames=0\n[STDOUT RAW] speed= 177x\n[STDOUT RAW] progress=continue\n[STDERR RAW] size=   31232KiB time=00:33:24.43 bitrate= 127.6kbits/s speed= 177x\n[STDOUT RAW] bitrate= 127.0kbits/s\n[STDOUT RAW] total_size=33292288\n[STDOUT RAW] out_time_us=2097289958\n[STDOUT RAW] out_time_ms=2097289958\n[STDOUT RAW] out_time=00:34:57.289958\n[STDOUT RAW] dup_frames=0\n[STDOUT RAW] drop_frames=0\n[STDOUT RAW] speed= 177x\n[STDOUT RAW] progress=continue\n[STDERR RAW] size=   32512KiB time=00:34:57.28 bitrate= 127.0kbits/s speed= 177x\n[STDOUT RAW] bitrate= 127.6kbits/s\n[STDOUT RAW] total_size=34865152\n[STDOUT RAW] out_time_us=2186281958\n[STDOUT RAW] out_time_ms=2186281958\n[STDOUT RAW] out_time=00:36:26.281958\n[STDOUT RAW] dup_frames=0\n[STDOUT RAW] drop_frames=0\n[STDOUT RAW] speed= 177x\n[STDOUT RAW] progress=continue\n[STDERR RAW] size=   34048KiB time=00:36:26.28 bitrate= 127.6kbits/s speed= 177x\n[STDOUT RAW] bitrate= 127.8kbits/s\n[STDOUT RAW] total_size=36438016\n[STDOUT RAW] out_time_us=2281657958\n[STDOUT RAW] out_time_ms=2281657958\n[STDOUT RAW] out_time=00:38:01.657958\n[STDOUT RAW] dup_frames=0\n[STDOUT RAW] drop_frames=0\n[STDOUT RAW] speed= 177x\n[STDOUT RAW] progress=continue\n[STDERR RAW] size=   35584KiB time=00:38:01.65 bitrate= 127.8kbits/s speed= 177x\n[STDOUT RAW] bitrate= 127.9kbits/s\n[STDOUT RAW] total_size=38010880\n[STDOUT RAW] out_time_us=2377681958\n[STDOUT RAW] out_time_ms=2377681958\n[STDOUT RAW] out_time=00:39:37.681958\n[STDOUT RAW] dup_frames=0\n[STDOUT RAW] drop_frames=0\n[STDOUT RAW] speed= 177x\n[STDOUT RAW] progress=continue\n[STDERR RAW] size=   37120KiB time=00:39:37.68 bitrate= 127.9kbits/s speed= 177x\n[STDOUT RAW] bitrate= 127.1kbits/s\n[STDOUT RAW] total_size=39321600\n[STDOUT RAW] out_time_us=2474113958\n[STDOUT RAW] out_time_ms=2474113958\n[STDOUT RAW] out_time=00:41:14.113958\n[STDOUT RAW] dup_frames=0\n[STDOUT RAW] drop_frames=0\n[STDOUT RAW] speed= 178x\n[STDOUT RAW] progress=continue\n[STDERR RAW] size=   38400KiB time=00:41:14.11 bitrate= 127.1kbits/s speed= 178x\n[STDOUT RAW] bitrate= 127.2kbits/s\n[STDOUT RAW] total_size=40894464\n[STDOUT RAW] out_time_us=2572225958\n[STDOUT RAW] out_time_ms=2572225958\n[STDOUT RAW] out_time=00:42:52.225958\n[STDOUT RAW] dup_frames=0\n[STDOUT RAW] drop_frames=0\n[STDOUT RAW] speed= 178x\n[STDOUT RAW] progress=continue\n[STDERR RAW] size=   39936KiB time=00:42:52.22 bitrate= 127.2kbits/s speed= 178x\n[STDOUT RAW] bitrate= 128.0kbits/s\n[STDOUT RAW] total_size=42467328\n[STDOUT RAW] out_time_us=2654785958\n[STDOUT RAW] out_time_ms=2654785958\n[STDOUT RAW] out_time=00:44:14.785958\n[STDOUT RAW] dup_frames=0\n[STDOUT RAW] drop_frames=0\n[STDOUT RAW] speed= 177x\n[STDOUT RAW] progress=continue\n[STDERR RAW] size=   41472KiB time=00:44:14.78 bitrate= 128.0kbits/s speed= 177x\n[STDOUT RAW] bitrate= 127.2kbits/s\n[STDOUT RAW] total_size=43778048\n[STDOUT RAW] out_time_us=2752633958\n[STDOUT RAW] out_time_ms=2752633958\n[STDOUT RAW] out_time=00:45:52.633958\n[STDOUT RAW] dup_frames=0\n[STDOUT RAW] drop_frames=0\n[STDOUT RAW] speed= 178x\n[STDOUT RAW] progress=continue\n[STDERR RAW] size=   42752KiB time=00:45:52.63 bitrate= 127.2kbits/s speed= 178x\n[STDOUT RAW] bitrate= 127.8kbits/s\n[STDOUT RAW] total_size=45350912\n[STDOUT RAW] out_time_us=2839009958\n[STDOUT RAW] out_time_ms=2839009958\n[STDOUT RAW] out_time=00:47:19.009958\n[STDOUT RAW] dup_frames=0\n[STDOUT RAW] drop_frames=0\n[STDOUT RAW] speed= 177x\n[STDOUT RAW] progress=continue\n[STDERR RAW] size=   44288KiB time=00:47:19.00 bitrate= 127.8kbits/s speed= 177x\n[STDOUT RAW] bitrate= 127.4kbits/s\n[STDOUT RAW] total_size=46661632\n[STDOUT RAW] out_time_us=2930305958\n[STDOUT RAW] out_time_ms=2930305958\n[STDOUT RAW] out_time=00:48:50.305958\n[STDOUT RAW] dup_frames=0\n[STDOUT RAW] drop_frames=0\n[STDOUT RAW] speed= 177x\n[STDOUT RAW] progress=continue\n[STDOUT RAW] bitrate= 127.6kbits/s\n[STDERR RAW] size=   45568KiB time=00:48:50.30 bitrate= 127.4kbits/s speed= 177x\n[STDOUT RAW] total_size=48234496\n[STDOUT RAW] out_time_us=3025009958\n[STDOUT RAW] out_time_ms=3025009958\n[STDOUT RAW] out_time=00:50:25.009958\n[STDOUT RAW] dup_frames=0\n[STDOUT RAW] drop_frames=0\n[STDOUT RAW] speed= 178x\n[STDOUT RAW] progress=continue\n[STDOUT RAW] bitrate= 127.5kbits/s\n[STDERR RAW] size=   47104KiB time=00:50:25.00 bitrate= 127.6kbits/s speed= 178x\n[STDOUT RAW] total_size=49807360\n[STDOUT RAW] out_time_us=3124657958\n[STDOUT RAW] out_time_ms=3124657958\n[STDOUT RAW] out_time=00:52:04.657958\n[STDOUT RAW] dup_frames=0\n[STDOUT RAW] drop_frames=0\n[STDOUT RAW] speed= 178x\n[STDOUT RAW] progress=continue\n[STDERR RAW] size=   48640KiB time=00:52:04.65 bitrate= 127.5kbits/s speed= 178x\n[STDOUT RAW] bitrate= 127.6kbits/s\n[STDOUT RAW] total_size=51380224\n[STDOUT RAW] out_time_us=3221569958\n[STDOUT RAW] out_time_ms=3221569958\n[STDOUT RAW] out_time=00:53:41.569958\n[STDOUT RAW] dup_frames=0\n[STDOUT RAW] drop_frames=0\n[STDOUT RAW] speed= 178x\n[STDOUT RAW] progress=continue\n[STDERR RAW] size=   50176KiB time=00:53:41.56 bitrate= 127.6kbits/s speed= 178x\n[STDOUT RAW] bitrate= 127.8kbits/s\n[STDOUT RAW] total_size=53215232\n[STDOUT RAW] out_time_us=3331273958\n[STDOUT RAW] out_time_ms=3331273958\n[STDOUT RAW] out_time=00:55:31.273958\n[STDOUT RAW] dup_frames=0\n[STDOUT RAW] drop_frames=0\n[STDOUT RAW] speed= 179x\n[STDOUT RAW] progress=continue\n[STDERR RAW] size=   51968KiB time=00:55:31.27 bitrate= 127.8kbits/s speed= 179x\n[STDOUT RAW] bitrate= 127.5kbits/s\n[STDOUT RAW] total_size=54788096\n[STDOUT RAW] out_time_us=3436729958\n[STDOUT RAW] out_time_ms=3436729958\n[STDOUT RAW] out_time=00:57:16.729958\n[STDOUT RAW] dup_frames=0\n[STDOUT RAW] drop_frames=0\n[STDOUT RAW] speed= 180x\n[STDOUT RAW] progress=continue\n[STDERR RAW] size=   53504KiB time=00:57:16.72 bitrate= 127.5kbits/s speed= 180x\n[STDERR RAW] size=   55163KiB time=00:58:50.37 bitrate= 128.0kbits/s speed= 180x\n[STDOUT RAW] bitrate= 128.0kbits/s\n[STDOUT RAW] total_size=56487212\n[STDOUT RAW] out_time_us=3530374000\n[STDOUT RAW] out_time_ms=3530374000\n[STDOUT RAW] out_time=00:58:50.374000\n[STDOUT RAW] dup_frames=0\n[STDOUT RAW] drop_frames=0\n[STDOUT RAW] speed= 180x\n[STDOUT RAW] progress=end\n[ConversionWorker] STDERR pipe closed signal received.\n[ConversionWorker] Detected 'progress=end' for 高冷15.wav\n[ConversionWorker] STDOUT pipe closed signal received.\n[ConversionWorker] Process finished and both stream pipes closed. Exiting loop.\n[ConversionWorker] Waiting for reader threads to join...\n[ConversionWorker] FFmpeg process ended. Return code: 0\n[ConversionWorker] Closing FFmpeg log file.\n